<?xml version="1.0" encoding="utf-8"?>
<!-- Generator: Adobe Illustrator 27.1.1, SVG Export Plug-In . SVG Version: 6.00 Build 0)  -->
<svg version="1.2" baseProfile="tiny"
	 xmlns="http://www.w3.org/2000/svg" xmlns:xlink="http://www.w3.org/1999/xlink" x="0px" y="0px" viewBox="0 0 1920 1080"
	 overflow="visible" xml:space="preserve">
<path fill="#FFEB62" d="M228.6,431.7c0.8,5.9-5,10.7-10.9,10.1c-5.6-0.6-11.4-2.5-12.5-8c-2-9.9-2.4-23.4,1.7-41.2
	c12.2-53,58-120.1,136.3-199.5c27.4-27.8,50.9-47.1,69.9-57.4c20.6-11.1,37.2-12.5,49.5-4c23.6,16.3,24.8,65.1,3.5,149.1
	c-18.2,72.1-51.4,162-93.4,253.2c-115.4,250.5-136.4,465.8-136.6,467.9c-0.5,5.2-4.8,9.1-10,9.1c-0.3,0-0.6,0-0.9,0
	c-5.5-0.5-9.6-5.4-9-10.9c0.2-2.2,5.3-55.7,24.9-141.3c18.1-78.9,52.4-200.7,113.5-333.1c41.5-90.1,74.2-178.8,92.2-249.7
	c9.1-36.2,14-65.9,14.3-88.5c0.5-27.9-6-36.5-9.9-39.2c-5-3.4-26.4-9.4-93.8,59C255.8,313.9,222.1,383.6,228.6,431.7z M768.5,215.8
	c3.2-3,2.5-8.3-1.5-10.2c-3.8-1.8-8.4-2.9-12.9-1.2c-11,4-15.4,22.8-17.4,28.9c-2.4,7.5-12.8,44.1-26.1,86.1
	c-18.6,58.5-41.7,131.3-58.4,192.8c-9.3,34.2-15.4,60.2-18.7,79.5c-4.8,28.9-3.3,41.6,5.8,46.9c2.3,1.3,4.6,1.9,6.8,1.9
	c8.8,0,14-3.9,17-7.2c3.8-4.1,2.7-13.6-1.3-17.4c-4.2-3.9-10.7,9.3-11-0.4c-0.3-9.8,0,0,0,0c0.4-11.9,4.6-40.1,23.2-107.1
	c16.5-59.3,38.2-127.9,55.7-183c16.6-52.4,24.2-80.5,26.8-89C759.1,228,762.6,221.6,768.5,215.8z M759.4,224.4L759.4,224.4
	L759.4,224.4z M542,523c7.3-5.8,22.1-15.6,41.3-27.5c21,16.3,49.5,30.5,91.6,30.5c11.8,0,24.7-1.1,38.8-3.6
	c59.8-10.6,88.6-49.8,104-70.9c0.3-0.3,0.5-0.7,0.8-1c0.4,13.3,2,31.1,17.1,38.6c19.4,9.6,52.2-3.6,106.4-43
	c9-6.1,14.7-9.2,18.2-10.7c0,0.2,0,0.3,0,0.5c-0.2,1.8-0.3,3.6-0.4,5.4c-0.1,8.3,4.9,11.3,7,12.2c8.1,3.4,13.8-2.5,24.3-13.1
	c4.6-4.7,10.5-10.6,17.4-16.7c-0.3,9.4,1,20.6,9.5,28.6c8.9,8.4,22.8,10.8,42.6,7.5c36.4-5.5,51.6-21.6,57.4-30.8
	c1.8-2.9,0-6.8-3.5-7.1l-16.7-1.8c0,0,0-0.1,0.1-0.4c0,0.1-5,15-40.4,20.3c-0.1,0-0.1,0-0.2,0c-12.7,2.1-21.7,1.3-25.6-2.3
	c-4.4-4.2-3.3-14.2-2.5-21.5c0.8-7.5,1.8-16-5.7-20.2c-7.7-4.2-15.5,2-18.8,4.6c-10.3,8.2-18.8,16.6-25.4,23.2c-1-3.1-2.9-6-6.4-8.1
	c-8.6-5.1-20.1-1.3-42.4,13.8c-0.1,0.1-0.2,0.1-0.3,0.2C866.6,476,848.5,473,844.5,471c-5.6-2.8-5.8-15.4-6-24.6
	c-0.2-10.1-0.4-19.7-8.3-23.9c-3.4-1.8-10.4-3.7-18.4,4.4c-3.1,3.1-6.2,7.3-10.1,12.7c-14.7,20.1-39.4,53.8-91.4,63
	c-52.5,9.3-84.9-1.9-108.6-18.4c87.6-53.3,233.4-135.4,235.4-136.5c4.8-2.7,6.5-8.8,3.8-13.6c-2.7-4.8-8.8-6.5-13.6-3.8
	c-8.1,4.5-155.8,87.7-242,140.6c-5.6-5.1-10.7-10.3-15.5-15.3c-19.4-19.9-39.6-40.5-70.2-19.3c-21.2,14.6-32.1,35-29.9,55.8
	c1.8,17.2,12.7,32.4,27.8,38.7c5.1,2.1,10.4,3.2,15.7,3.2C523,533.8,533.1,530.1,542,523z M555.3,469.5c3.8,3.9,7.8,8,12.3,12.2
	c-17.5,11-31,19.9-38,25.6c-8,6.4-16.7,8.1-24.5,4.9c-8.5-3.5-14.6-12.3-15.6-22.3c-1.4-13.5,6.2-26.8,21.4-37.2
	c5.2-3.6,9.5-5.3,13.6-5.3C533,447.3,541.1,454.9,555.3,469.5z M1194.3,423.5c0.4-0.7,0.8-1.3,1.2-2c8.2,0.1,16.4-1,24.2-3.7
	c5.2-1.8,8-7.5,6.2-12.7s-7.5-8-12.7-6.2c-2.8,1-5.7,1.7-8.7,2.1c2.9-11,2.2-20.8-2.4-28.3c-4.2-6.9-13.4-14.7-33.3-13
	c-13.6,1.2-23.3,4.6-29,10.1c-4.2-3.2-10.2-2.7-13.7,1.3c-0.4,0.5-11,12.6-20.7,27.8c-14.4,22.7-18.9,39.9-13.9,52.5
	c2.8,7,9.9,15.8,27.8,17.6c1.7,0.2,3.5,0.3,5.2,0.3C1152.8,469.3,1179.6,446.9,1194.3,423.5z M1142.3,401.1
	c7.2,7.3,18.5,13.6,31.4,17.2c-12.9,17.4-33.7,32.6-52.3,30.8c-4.3-0.4-9.8-1.7-11.1-5c-3.7-9.3,9.5-33.2,25.2-52.9
	C1136.7,394.3,1138.9,397.6,1142.3,401.1z M1170.6,379.6c4.4-0.4,12.1-0.4,14.5,3.5c1.8,2.9,1.7,9-1.3,17.1
	c-7.7-1.6-14.8-4.4-20.3-7.7c-6.3-3.9-8.7-7.2-9.3-8.6C1155.4,383,1159.4,380.6,1170.6,379.6z M1297.2,425.1
	c16.5-8.2,35-20.9,53.4-36.7c7.8-6.7,15.2-13.7,22.4-20.9h0.1c3.1,9.1,6.9,15.5,10.3,19.9c10.6,14,25.7,21.9,44.9,23.4
	c19.7,1.5,44.1-3.8,72.4-16c45.8-19.6,78.5-44.8,100.5-66.1c0,0,0,0,0.1,0c1.4,1.8,3,3.6,4.7,5.4c35.9,37.6,112.4,50.5,165,8.9
	c4.3-3.4,5.4-9.8,2.1-14.2c-3.4-4.5-9.8-5.2-14.2-1.7c-20.6,16.4-47.5,23.9-75.7,21.1c-25-2.5-48.5-12.9-62.7-27.9
	c-1.7-1.8-3.5-3.8-5.2-6.2c0.2-0.2,0.4-0.4,0.6-0.7c23.4-26.4,38.1-53.8,37.7-69.8c-0.3-10.5-6.9-14-9.7-15
	c-10.1-3.6-22.3,3.7-39.8,23.6c-15.9,18.1-20.2,39-13.1,58.5l0,0c-20.8,21-52.5,46.2-98.1,65.7c-46.5,19.9-77.9,19.6-93.5-1.1
	c-4.8-6.4-8.2-14.9-10.3-25.1l0,0c24.7-28.3,44.2-59.2,55.6-89.1c34.7-90.3,33.1-113.9,19.8-121.6c-11.5-6.7-26.2,2.4-49,30.3
	c-16.1,19.7-33.5,61.6-42.3,101.8c-6.7,30.7-7.5,54.3-5.4,72.2l0,0c-4.9,5.3-10,10.6-15.3,15.7h-0.1c-8.2-11.4-25.9-21.9-43.3-24.1
	c-13.9-1.8-27,1.4-38.1,9.2c-12.8,9-22.7,24-29.4,44.6c-3.5,10.7-4.5,19.5-3.1,26.6c1.7,8.5,6.9,14.7,14.7,17.5
	c3,1.1,6.4,1.6,10.1,1.6C1272.6,435,1283.9,431.7,1297.2,425.1z M1301.8,355c15.1,0,28.8,9.4,33.7,15.1c1.8,1.9,0.8,4.3-2.2,6.7
	c-37,30.8-64.9,40.6-73.3,37.7c-2.9-1-2.6-8.9,0.8-19C1271.6,362,1289,355,1301.8,355L1301.8,355z M1426.1,253.9
	c-8.6,22.3-22,45.3-39,67.3h-0.1c0.4-13.6,2.3-28.9,5.9-45.3c9.2-41.8,26.2-78.7,38.2-93.5c9.5-11.6,15.9-17.8,20-21.1
	c0.9-0.7,2.2,0,2.1,1.1C1452.6,173,1447.7,197.7,1426.1,253.9z M1610.3,288.9c-0.8,1.1-2.6,0.4-2.4-1c0.9-6.9,4.2-14.5,11.2-22.4
	c3.9-4.4,7.1-7.7,9.8-10.2c0.7-0.6,1.7,0.1,1.4,0.9C1626.9,264.2,1620.8,275.4,1610.3,288.9z M932.8,331.1c4.8-1.7,8.4-7.1,6.4-11.8
	c-3.7-9,0.3-9,4.3-5c4.4,4.4,9.5,0.9,13.1-4.7c2.5-3.9,1.8-9.2-1.5-12.5c-14.8-14.7-25.1-11.7-28.8-9.6c-11.3,6.1-9.5,22.5-6.7,36.2
	c1,4.7,5.1,8,9.8,8C930.6,331.6,931.7,331.4,932.8,331.1z"/>
</svg>
